<?xml version="1.0" encoding="UTF-8"?>
<svg version="1.1" xmlns="http://www.w3.org/2000/svg" width="500" height="500">
<path d="M0 0 C2.31 0 4.62 0 7 0 C9.79173742 4.6556371 12.00714048 9.2298109 13.828125 14.3515625 C14.34601733 15.76891604 14.86493356 17.18589579 15.38476562 18.60253906 C15.64974854 19.3281604 15.91473145 20.05378174 16.18774414 20.8013916 C17.51433698 24.39220369 18.90449125 27.95772643 20.296875 31.5234375 C20.57584122 32.2394664 20.85480743 32.9554953 21.14222717 33.69322205 C22.01054776 35.92084826 22.88011876 38.1479828 23.75 40.375 C30.7491277 58.29931072 30.7491277 58.29931072 33.95703125 66.80078125 C34.40143555 67.97398926 34.84583984 69.14719727 35.30371094 70.35595703 C36.11354463 72.49928337 36.91802374 74.64464457 37.71582031 76.79248047 C41.98280733 88.66790833 41.98280733 88.66790833 50 98 C52.95366458 99.17941468 55.94012585 100.13695857 59 101 C58.67 102.65 58.34 104.3 58 106 C51.98602991 106.07432654 45.97232904 106.12868588 39.95800781 106.16479492 C37.91336406 106.17985288 35.86875245 106.20030357 33.82421875 106.22631836 C30.88012748 106.26283311 27.93646443 106.27975651 24.9921875 106.29296875 C24.0825827 106.30845261 23.17297791 106.32393646 22.23580933 106.33988953 C15.50164203 106.34166294 11.41072902 104.9914718 6.125 100.625 C4 98 4 98 3.6875 95.1875 C3.790625 94.465625 3.89375 93.74375 4 93 C6.64268396 93.50820845 8.47848844 94.26004807 10.875 95.5625 C15.39582507 97.64207953 18.47094795 97.35285817 23.25 96.25 C26.45968893 94.79105049 26.74618925 94.17632057 28 91 C29.04959701 86.21762564 29.42301714 82.2245233 27.8125 77.5625 C24.91151212 73.46110335 23.26167164 72.23130647 18.25 71.3125 C17.1775 71.209375 16.105 71.10625 15 71 C14.67 69.68 14.34 68.36 14 67 C14.66 67 15.32 67 16 67 C16 65.02 16 63.04 16 61 C15.34 60.67 14.68 60.34 14 60 C12.9375 58.0625 12.9375 58.0625 12 56 C11.1501532 53.81594124 11.1501532 53.81594124 8.875 52.875 C4.53134506 51.55301806 0.73838659 51.63615164 -3.6875 52.5625 C-7.05561173 54.65619108 -8.74023891 57.32397584 -10 61 C-10.30358114 64.0358114 -10.24798527 66.96218039 -10 70 C-11.8253125 70.5878125 -11.8253125 70.5878125 -13.6875 71.1875 C-17.73723037 72.7025587 -20.21622312 74.62572499 -23 78 C-24.19211438 81.57634313 -24.25926574 84.24064683 -24 88 C-22.59240659 90.76441969 -22.59240659 90.76441969 -21 93 C-21 93.66 -21 94.32 -21 95 C-15.87080814 97.10428384 -11.4389165 97.21755666 -6 97 C-5.67 96.34 -5.34 95.68 -5 95 C-3.35636866 94.27840576 -1.68949614 93.60648579 0 93 C0.36643538 97.2750794 -0.27279852 99.65697883 -3 103 C-8.75985179 106.13319397 -13.57693511 106.41686233 -20.0546875 106.328125 C-20.99684113 106.32625183 -21.93899475 106.32437866 -22.90969849 106.32244873 C-24.88807753 106.31575829 -26.86644402 106.30190417 -28.84472656 106.28125 C-31.88619148 106.24988459 -34.92713881 106.2402544 -37.96875 106.234375 C-39.89323555 106.22521278 -41.8177158 106.21483952 -43.7421875 106.203125 C-44.65563934 106.19887512 -45.56909119 106.19462524 -46.51022339 106.19024658 C-52.88279455 106.11720545 -52.88279455 106.11720545 -54 105 C-54.04063832 103.33382885 -54.042721 101.66611905 -54 100 C-52.7625 99.71125 -51.525 99.4225 -50.25 99.125 C-45.90081297 98.08667101 -45.90081297 98.08667101 -42 96 C-41.65983003 94.66839447 -41.32778188 93.33470893 -41 92 C-40.28538725 90.48282216 -39.53148819 88.98383834 -38.75 87.5 C-36.34858698 82.80038655 -34.30892795 78.01730143 -32.31640625 73.1328125 C-30.54771224 68.92363566 -28.59682215 64.80870535 -26.625 60.69140625 C-25.20635376 57.59183922 -24.01507698 54.4248917 -22.81640625 51.234375 C-19.82795027 43.3895382 -16.43410541 35.73915008 -13.0065918 28.07788086 C-11.93208972 25.67540316 -10.86314609 23.27050906 -9.79492188 20.86523438 C-9.10188551 19.30975188 -8.40853713 17.75440835 -7.71484375 16.19921875 C-7.24436867 15.14114265 -7.24436867 15.14114265 -6.76438904 14.06169128 C-4.63398246 9.30734506 -2.3555682 4.64705038 0 0 Z " fill="#010101" transform="translate(89,176)"/>
<path d="M0 0 C6.00624844 5.36871369 9.41916272 14.47498335 9.98046875 22.359375 C10.06367174 32.54342076 8.31726547 40.86559052 1.8125 49 C-5.20051718 55.08463924 -12.16085115 57.46711339 -21.3828125 57.2421875 C-29.62976855 56.5300548 -35.79210831 53.31225564 -41.1875 47 C-47.23557139 37.38011474 -48.5787463 27.41821914 -46.7265625 16.2109375 C-44.2899564 6.95183433 -39.28394607 1.24630826 -31.3359375 -3.87109375 C-20.8199728 -9.3967552 -9.34692669 -5.86473832 0 0 Z M-32.375 3.1875 C-36.83224613 10.10391642 -37.71876523 17.28830286 -37.625 25.375 C-37.61670166 26.29676025 -37.60840332 27.21852051 -37.59985352 28.16821289 C-37.40903763 35.85992651 -36.78031091 43.00709879 -31.43359375 48.94921875 C-26.55257003 53.32074104 -23.23938912 54.31554981 -16.71875 54.203125 C-12.31212313 53.84950679 -9.64164348 52.48909885 -6.5625 49.3359375 C1.16793134 40.00738814 0.46793487 28.5257052 -0.1875 17 C-0.97145957 9.75817349 -3.22303262 4.6115546 -8.8125 -0.3125 C-16.96568187 -6.10555027 -25.74193951 -3.44556049 -32.375 3.1875 Z " fill="#010101" transform="translate(402.1875,225)"/>
<path d="M0 0 C14.85 0 29.7 0 45 0 C45 5.94 45 11.88 45 18 C44.01 18 43.02 18 42 18 C41.16013916 16.06532058 40.32831973 14.12714871 39.5 12.1875 C39.0359375 11.10855469 38.571875 10.02960938 38.09375 8.91796875 C37 6 37 6 37 3 C30.07 3 23.14 3 16 3 C16 11.58 16 20.16 16 29 C23.63651449 28.97767965 23.63651449 28.97767965 25.875 25.71484375 C26.24625 24.79832031 26.6175 23.88179687 27 22.9375 C27.391875 22.01839844 27.78375 21.09929687 28.1875 20.15234375 C28.455625 19.44207031 28.72375 18.73179687 29 18 C29.99 18.33 30.98 18.66 32 19 C32 26.59 32 34.18 32 42 C30.68 42 29.36 42 28 42 C25 35.375 25 35.375 25 32 C22.03 32 19.06 32 16 32 C16 40.58 16 49.16 16 58 C23.26 58 30.52 58 38 58 C38.99 54.7 39.98 51.4 41 48 C41.96119395 45.65041479 42.94574256 43.30932581 44 41 C44.99 41.33 45.98 41.66 47 42 C47 47.94 47 53.88 47 60 C31.49 60 15.98 60 0 60 C0 59.34 0 58.68 0 58 C3.465 57.505 3.465 57.505 7 57 C7 39.51 7 22.02 7 4 C4.69 3.67 2.38 3.34 0 3 C0 2.01 0 1.02 0 0 Z " fill="#000000" transform="translate(201,220)"/>
<path d="M0 0 C4.47911082 -0.05856225 8.9581217 -0.09378482 13.4375 -0.125 C14.69755859 -0.14175781 15.95761719 -0.15851563 17.25585938 -0.17578125 C35.7221272 -0.27221085 35.7221272 -0.27221085 42.625 6.375 C46.36744817 10.79789329 46.38343699 15.98918149 46.25 21.53515625 C45.75075516 26.45739838 44.23215934 29.80026591 40.625 33.3125 C32.91823925 38.2668462 24.89354036 38.12182932 16 38 C16 44.27 16 50.54 16 57 C19.465 57.495 19.465 57.495 23 58 C23 58.66 23 59.32 23 60 C15.41 60 7.82 60 0 60 C0 59.34 0 58.68 0 58 C3.465 57.505 3.465 57.505 7 57 C7 39.51 7 22.02 7 4 C4.69 3.67 2.38 3.34 0 3 C0 2.01 0 1.02 0 0 Z M16 3 C16 13.56 16 24.12 16 35 C25.03809499 35.45338299 25.03809499 35.45338299 32 32 C36.41320247 27.13025934 36.27957601 22.24861657 36.21875 15.953125 C35.86961161 11.2397568 34.47635164 8.33794368 31 5.1875 C25.71386869 2.04885954 23.03960564 3 16 3 Z " fill="#010101" transform="translate(303,220)"/>
<path d="M0 0 C1.10988281 -0.00257813 2.21976562 -0.00515625 3.36328125 -0.0078125 C6.6875 0.125 6.6875 0.125 9.66796875 0.6953125 C13.35104084 1.36292073 13.35104084 1.36292073 19.6875 0.125 C19.6875 5.405 19.6875 10.685 19.6875 16.125 C15.6875 15.125 15.6875 15.125 14.421875 13.34765625 C13.93460937 12.27837891 13.93460937 12.27837891 13.4375 11.1875 C13.10234375 10.47722656 12.7671875 9.76695312 12.421875 9.03515625 C11.6875 7.125 11.6875 7.125 11.6875 5.125 C1.56408335 2.92309405 1.56408335 2.92309405 -8.3125 5.125 C-11.52592515 7.936747 -12.21810137 9.45240978 -12.8125 13.6875 C-12.21755263 17.77776318 -11.45877714 18.56407675 -8.3125 21.125 C-5.4082951 22.35569836 -5.4082951 22.35569836 -2.1875 23.1875 C-1.03894531 23.52007812 0.10960937 23.85265625 1.29296875 24.1953125 C3.37538003 24.76563918 5.46075429 25.32543426 7.55078125 25.8671875 C13.10910965 27.36852658 16.72152235 28.86157403 20.6875 33.125 C23.6705708 38.81995335 23.79512988 46.3426957 22 52.47265625 C19.8848426 57.18769463 17.34787911 59.69771921 12.6875 62.125 C5.46802889 64.34294061 -1.45956161 63.54121325 -8.3046875 60.5859375 C-10.97147003 59.97371894 -11.95939404 60.84232656 -14.3125 62.125 C-15.6325 62.125 -16.9525 62.125 -18.3125 62.125 C-18.3125 55.525 -18.3125 48.925 -18.3125 42.125 C-17.3225 42.125 -16.3325 42.125 -15.3125 42.125 C-14.87679688 43.10082031 -14.44109375 44.07664062 -13.9921875 45.08203125 C-13.39160784 46.36764709 -12.78999014 47.65277837 -12.1875 48.9375 C-11.90390625 49.58009766 -11.6203125 50.22269531 -11.328125 50.88476562 C-9.76403034 54.16596421 -8.48215001 56.01128364 -5.4453125 58.046875 C-0.00607574 59.91873204 6.24582203 60.4106843 11.7265625 58.36328125 C14.78027526 56.46035187 16.37135818 54.40338963 17.6875 51.125 C18.06108034 47.90994499 17.78358042 45.1759455 16.6875 42.125 C11.28575017 38.07368762 4.33509262 36.73852082 -2.14453125 35.04980469 C-8.36081598 33.36551989 -13.89467527 30.88133639 -17.3125 25.125 C-19.46733915 19.44406042 -18.60667141 13.48034893 -16.3671875 7.98828125 C-12.6994326 1.50858093 -7.04360464 -0.01624822 0 0 Z " fill="#010101" transform="translate(274.3125,218.875)"/>
<path d="M0 0 C16.17 0 32.34 0 49 0 C49 5.94 49 11.88 49 18 C47.68 17.67 46.36 17.34 45 17 C43.515625 14.05859375 43.515625 14.05859375 42.25 10.4375 C41.82203125 9.23996094 41.3940625 8.04242188 40.953125 6.80859375 C40.63859375 5.88175781 40.3240625 4.95492187 40 4 C34.555 3.505 34.555 3.505 29 3 C29 20.82 29 38.64 29 57 C31.31 57.33 33.62 57.66 36 58 C36 58.66 36 59.32 36 60 C28.41 60 20.82 60 13 60 C13 59.34 13 58.68 13 58 C16.465 57.505 16.465 57.505 20 57 C20 39.18 20 21.36 20 3 C16.04 3 12.08 3 8 3 C7.319375 5.3203125 7.319375 5.3203125 6.625 7.6875 C5.5724488 11.20431799 4.46154792 14.62719712 3 18 C2.01 18 1.02 18 0 18 C0 12.06 0 6.12 0 0 Z " fill="#000000" transform="translate(417,220)"/>
<path d="M0 0 C0.598125 -0.495 1.19625 -0.99 1.8125 -1.5 C4 -3 4 -3 7 -3 C7 3.27 7 9.54 7 16 C6.01 16 5.02 16 4 16 C3.32645501 14.56570999 2.66140299 13.12742943 2 11.6875 C1.62875 10.88699219 1.2575 10.08648437 0.875 9.26171875 C0 7 0 7 0 4 C-0.78375 3.690625 -1.5675 3.38125 -2.375 3.0625 C-5 2 -5 2 -7 1 C-12.17612405 0.48407914 -16.63098164 0.40261017 -21.4375 2.5 C-27.17091214 8.09357282 -28.97400695 14.69894298 -29.16796875 22.546875 C-29.17986594 24.28122141 -29.18621717 26.01561326 -29.1875 27.75 C-29.19974609 28.6059375 -29.21199219 29.461875 -29.22460938 30.34375 C-29.24360399 38.70137891 -28.51926108 46.3768867 -23 53 C-19.21737239 56.3376126 -15.43696307 56.59372763 -10.5625 56.390625 C-6.12990286 55.71492422 -3.05879473 54.31652022 0 51 C2.07229797 47.1226347 3.61711136 43.16861142 5 39 C5.66 39 6.32 39 7 39 C7 45.6 7 52.2 7 59 C2 58 2 58 -1 57 C-2.010625 57.474375 -3.02125 57.94875 -4.0625 58.4375 C-10.08073174 61.18688166 -16.4330919 60.66501799 -22.6875 58.875 C-30.62769188 55.83616113 -34.49593212 50.93248867 -38.0546875 43.3671875 C-41.55731149 34.59615386 -41.36714956 22.80178645 -38.375 13.875 C-35.06067957 6.21136084 -30.46925586 1.59630838 -23 -2 C-15.32359973 -4.43437641 -7.01258034 -3.82504382 0 0 Z " fill="#010101" transform="translate(187,222)"/>
<path d="M0 0 C1.15518918 0.90484792 2.29885406 1.8244206 3.4375 2.75 C4.07558594 3.26046875 4.71367188 3.7709375 5.37109375 4.296875 C7.23961495 6.25053266 7.85270671 7.30137644 8 10 C6.92578125 11.73828125 6.92578125 11.73828125 5.3125 13.3125 C4.79300781 13.84488281 4.27351563 14.37726563 3.73828125 14.92578125 C2 16 2 16 -0.03125 15.8125 C-3.14733201 14.5264979 -4.89614466 12.58473656 -7 10 C-6.70531676 6.63123474 -5.35336708 5.0116628 -2.9375 2.75 C-2.38964844 2.22921875 -1.84179688 1.7084375 -1.27734375 1.171875 C-0.64505859 0.59179688 -0.64505859 0.59179688 0 0 Z " fill="#010101" transform="translate(91,247)"/>
<path d="" fill="#FFFFFF" transform="translate(0,0)"/>
<path d="" fill="#FFFFFF" transform="translate(0,0)"/>
<path d="" fill="#FFFFFF" transform="translate(0,0)"/>
<path d="" fill="#FFFFFF" transform="translate(0,0)"/>
<path d="" fill="#FFFFFF" transform="translate(0,0)"/>
<path d="" fill="#FFFFFF" transform="translate(0,0)"/>
<path d="" fill="#FFFFFF" transform="translate(0,0)"/>
<path d="" fill="#FFFFFF" transform="translate(0,0)"/>
<path d="" fill="#FFFFFF" transform="translate(0,0)"/>
<path d="" fill="#FFFFFF" transform="translate(0,0)"/>
<path d="" fill="#FFFFFF" transform="translate(0,0)"/>
<path d="" fill="#FFFFFF" transform="translate(0,0)"/>
<path d="" fill="#FFFFFF" transform="translate(0,0)"/>
<path d="" fill="#FFFFFF" transform="translate(0,0)"/>
<path d="" fill="#FFFFFF" transform="translate(0,0)"/>
<path d="" fill="#FFFFFF" transform="translate(0,0)"/>
<path d="" fill="#FFFFFF" transform="translate(0,0)"/>
<path d="" fill="#FFFFFF" transform="translate(0,0)"/>
<path d="" fill="#FFFFFF" transform="translate(0,0)"/>
<path d="" fill="#FFFFFF" transform="translate(0,0)"/>
<path d="" fill="#FFFFFF" transform="translate(0,0)"/>
<path d="" fill="#FFFFFF" transform="translate(0,0)"/>
<path d="" fill="#FFFFFF" transform="translate(0,0)"/>
<path d="" fill="#FFFFFF" transform="translate(0,0)"/>
<path d="" fill="#FFFFFF" transform="translate(0,0)"/>
<path d="" fill="#FFFFFF" transform="translate(0,0)"/>
<path d="" fill="#FFFFFF" transform="translate(0,0)"/>
<path d="" fill="#FFFFFF" transform="translate(0,0)"/>
<path d="" fill="#FFFFFF" transform="translate(0,0)"/>
<path d="" fill="#FFFFFF" transform="translate(0,0)"/>
<path d="" fill="#FFFFFF" transform="translate(0,0)"/>
<path d="" fill="#FFFFFF" transform="translate(0,0)"/>
<path d="" fill="#FFFFFF" transform="translate(0,0)"/>
<path d="" fill="#FFFFFF" transform="translate(0,0)"/>
<path d="" fill="#FFFFFF" transform="translate(0,0)"/>
<path d="" fill="#FFFFFF" transform="translate(0,0)"/>
<path d="" fill="#FFFFFF" transform="translate(0,0)"/>
<path d="" fill="#FFFFFF" transform="translate(0,0)"/>
<path d="" fill="#FFFFFF" transform="translate(0,0)"/>
<path d="" fill="#FFFFFF" transform="translate(0,0)"/>
<path d="" fill="#FFFFFF" transform="translate(0,0)"/>
<path d="" fill="#FFFFFF" transform="translate(0,0)"/>
<path d="" fill="#FFFFFF" transform="translate(0,0)"/>
<path d="" fill="#FFFFFF" transform="translate(0,0)"/>
<path d="" fill="#FFFFFF" transform="translate(0,0)"/>
<path d="" fill="#FFFFFF" transform="translate(0,0)"/>
<path d="" fill="#FFFFFF" transform="translate(0,0)"/>
<path d="" fill="#FFFFFF" transform="translate(0,0)"/>
<path d="" fill="#FFFFFF" transform="translate(0,0)"/>
<path d="" fill="#FFFFFF" transform="translate(0,0)"/>
<path d="" fill="#FFFFFF" transform="translate(0,0)"/>
<path d="" fill="#FFFFFF" transform="translate(0,0)"/>
<path d="" fill="#FFFFFF" transform="translate(0,0)"/>
<path d="" fill="#000000" transform="translate(0,0)"/>
<path d="" fill="#000000" transform="translate(0,0)"/>
<path d="" fill="#FFFFFF" transform="translate(0,0)"/>
<path d="" fill="#FFFFFF" transform="translate(0,0)"/>
<path d="" fill="#FFFFFF" transform="translate(0,0)"/>
<path d="" fill="#FFFFFF" transform="translate(0,0)"/>
<path d="" fill="#FFFFFF" transform="translate(0,0)"/>
<path d="" fill="#FFFFFF" transform="translate(0,0)"/>
<path d="" fill="#FFFFFF" transform="translate(0,0)"/>
<path d="" fill="#FFFFFF" transform="translate(0,0)"/>
<path d="" fill="#FFFFFF" transform="translate(0,0)"/>
<path d="" fill="#FFFFFF" transform="translate(0,0)"/>
<path d="" fill="#FFFFFF" transform="translate(0,0)"/>
<path d="" fill="#FFFFFF" transform="translate(0,0)"/>
<path d="" fill="#FFFFFF" transform="translate(0,0)"/>
<path d="" fill="#FFFFFF" transform="translate(0,0)"/>
<path d="" fill="#FFFFFF" transform="translate(0,0)"/>
<path d="" fill="#FFFFFF" transform="translate(0,0)"/>
<path d="" fill="#FFFFFF" transform="translate(0,0)"/>
<path d="" fill="#FFFFFF" transform="translate(0,0)"/>
<path d="" fill="#FFFFFF" transform="translate(0,0)"/>
<path d="" fill="#FFFFFF" transform="translate(0,0)"/>
<path d="" fill="#FFFFFF" transform="translate(0,0)"/>
<path d="" fill="#FFFFFF" transform="translate(0,0)"/>
<path d="" fill="#FFFFFF" transform="translate(0,0)"/>
<path d="" fill="#FFFFFF" transform="translate(0,0)"/>
<path d="" fill="#FFFFFF" transform="translate(0,0)"/>
<path d="" fill="#FFFFFF" transform="translate(0,0)"/>
<path d="" fill="#FFFFFF" transform="translate(0,0)"/>
<path d="" fill="#FFFFFF" transform="translate(0,0)"/>
<path d="" fill="#FFFFFF" transform="translate(0,0)"/>
<path d="" fill="#FFFFFF" transform="translate(0,0)"/>
<path d="" fill="#FFFFFF" transform="translate(0,0)"/>
<path d="" fill="#FFFFFF" transform="translate(0,0)"/>
<path d="" fill="#FFFFFF" transform="translate(0,0)"/>
<path d="" fill="#FFFFFF" transform="translate(0,0)"/>
<path d="" fill="#FFFFFF" transform="translate(0,0)"/>
<path d="" fill="#FFFFFF" transform="translate(0,0)"/>
<path d="" fill="#FFFFFF" transform="translate(0,0)"/>
<path d="" fill="#FFFFFF" transform="translate(0,0)"/>
<path d="" fill="#FFFFFF" transform="translate(0,0)"/>
<path d="" fill="#FFFFFF" transform="translate(0,0)"/>
<path d="" fill="#FFFFFF" transform="translate(0,0)"/>
<path d="" fill="#FFFFFF" transform="translate(0,0)"/>
<path d="" fill="#FFFFFF" transform="translate(0,0)"/>
<path d="" fill="#FFFFFF" transform="translate(0,0)"/>
<path d="" fill="#FFFFFF" transform="translate(0,0)"/>
<path d="" fill="#FFFFFF" transform="translate(0,0)"/>
<path d="" fill="#FFFFFF" transform="translate(0,0)"/>
<path d="" fill="#FFFFFF" transform="translate(0,0)"/>
<path d="" fill="#FFFFFF" transform="translate(0,0)"/>
<path d="" fill="#FFFFFF" transform="translate(0,0)"/>
</svg>
